<?xml version="1.0" encoding="UTF-8" standalone="no"?> <svg xmlns="http://www.w3.org/2000/svg" xmlns:svg="http://www.w3.org/2000/svg" width="3.4237089mm" height="3.9457865mm" viewBox="0 0 3.4237089 3.9457865" version="1.1" id="svg1" xml:space="preserve"><defs id="defs1"></defs><g id="layer1" transform="translate(-103.32773,-146.45836)"><g style="fill:#000000" id="g1" transform="matrix(0.26458333,0,0,0.26458333,103.1875,143.00197)"><path d="M 11.3535,16.0283 H 10.333 A 3.4229,3.4229 0 0 0 7,13.0635 3.4229,3.4229 0 0 0 3.667,16.0283 H 2.647 A 2.1184,2.1184 0 0 0 0.53,18.1445 V 25.86 a 2.1186,2.1186 0 0 0 2.1162,2.1167 h 8.707 A 2.1186,2.1186 0 0 0 13.47,25.86 V 18.1445 A 2.1184,2.1184 0 0 0 11.3535,16.0283 Z M 7,14.1631 a 2.3169,2.3169 0 0 1 2.2222,1.8652 H 4.7778 A 2.3169,2.3169 0 0 1 7,14.1631 Z M 12.37,25.86 a 1.0182,1.0182 0 0 1 -1.0166,1.0171 H 2.6465 A 1.0182,1.0182 0 0 1 1.63,25.86 v -7.7155 a 1.0178,1.0178 0 0 1 1.0166,-1.0166 h 8.707 a 1.0178,1.0178 0 0 1 1.0164,1.0166 z" id="path1"></path></g></g></svg> 