<?xml version="1.0" encoding="UTF-8"?> <svg xmlns="http://www.w3.org/2000/svg" xmlns:xlink="http://www.w3.org/1999/xlink" version="1.1" id="layer" x="0px" y="0px" viewBox="0 0 652 652" style="enable-background:new 0 0 652 652;" xml:space="preserve"> <style type="text/css"> .st0{fill:#000;} </style> <g> <path class="st0" d="M54,342.3v-10.4v-1.2h1.2h58.9v-21.8H55.2H54v-1.2v-8.2c0-5.4,2.7-8.1,8.1-8.1h53.3v-24.4H36.9 c-10.4,0-16.1,5.7-16.1,16.1v75.4c0,10.4,5.7,16.1,16.1,16.1H116v-24.4H62.1C56.7,350.4,54,347.6,54,342.3"></path> <path class="st0" d="M161.8,341.6v-74.5h-33.2v91.5c0,10.4,5.7,16.1,16.1,16.1h78.5v-25h-53.3C164.5,349.7,161.8,347,161.8,341.6"></path> <path class="st0" d="M266.4,342.3v-10.4v-1.2h1.2h58.9v-21.8h-58.9h-1.2v-1.2v-8.2c0-5.4,2.7-8.1,8.1-8.1h53.3v-24.4h-78.5 c-10.4,0-16.1,5.7-16.1,16.1v75.4c0,10.4,5.7,16.1,16.1,16.1h79.1v-24.4h-53.9C269.1,350.4,266.4,347.6,266.4,342.3"></path> </g> <rect x="341" y="267.1" class="st0" width="33.2" height="107.6"></rect> <g> <path class="st0" d="M465.7,374.7h39.6l-41.1-46.1c-3.6-4.1-4.9-6.5-4.9-9.4c0-3.5,1.9-6.7,3.6-8.7l36.6-43.4h-39l-29.2,41 l-0.1,0.1c0,0.1-0.1,0.2-0.1,0.2l-0.3,0.5h-0.6h-8.3h-1.2v-1.2v-40.6h-33.2v107.6h33.2v-42.8v-1.2h1.2h8.9h0.6l0.3,0.5 c0.4,0.5,0.7,0.9,1,1.3L465.7,374.7z"></path> <path class="st0" d="M561.4,351c-21.1,0-25.3-11-25.3-30.1c0-19.1,4.1-30.1,25.3-30.1s25.3,11,25.3,30.1 C586.7,339.9,582.5,351,561.4,351 M608,276c-8.3-7.2-21.9-10.2-46.6-10.2c-24.8,0-38.3,2.9-46.6,10.2c-9,7.7-12.8,21.2-12.8,44.9 c0,23.7,3.8,37.2,12.8,44.9c8.3,7.2,21.8,10.2,46.6,10.2c24.8,0,38.3-2.9,46.6-10.2c9-7.7,12.8-21.2,12.8-44.9 C620.8,297.2,617,283.7,608,276"></path> </g> </svg> 