<?xml version="1.0" encoding="UTF-8"?> <svg xmlns="http://www.w3.org/2000/svg" viewBox="0 0 206.34587 208"><defs><style>.cls-1{fill:none;stroke:#000;stroke-linecap:round;stroke-linejoin:round;stroke-width:8px;}</style></defs><g id="Слой_2" data-name="Слой 2"><g id="Layer_1" data-name="Layer 1"><path class="cls-1" d="M172.54841,126.97507V73.37547A69.37548,69.37548,0,0,0,103.17294,4h-.00014A69.37548,69.37548,0,0,0,33.79732,73.37547v65.88145a51.65859,51.65859,0,0,0,51.65859,51.65859H85.456"></path><path class="cls-1" d="M172.54841,126.97507h6.15042a23.647,23.647,0,0,0,23.647-23.64705V103.328a23.647,23.647,0,0,0-23.647-23.647h-6.15042"></path><path class="cls-1" d="M33.79746,126.97507H27.64705A23.64705,23.64705,0,0,1,4,103.328V103.328a23.647,23.647,0,0,1,23.64705-23.647h6.15041"></path><rect class="cls-1" x="85.35861" y="177.83101" width="34.56056" height="26.16899" rx="13.08448"></rect><path class="cls-1" d="M102.63894,156.50467h-.0001A45.15117,45.15117,0,0,1,57.48767,111.3535V68.00361h7.6289A29.34126,29.34126,0,0,0,83.79421,61.291L96.39609,50.88942l9.53441,9.05184a29.34126,29.34126,0,0,0,20.20192,8.06235h21.65769V111.3535A45.15117,45.15117,0,0,1,102.63894,156.50467Z"></path><path class="cls-1" d="M119.56387,113.84876a16.391,16.391,0,0,1-32.782,0"></path></g></g></svg> 