<?xml version="1.0" encoding="UTF-8"?> <svg xmlns="http://www.w3.org/2000/svg" viewBox="0 0 208 162.04501"><defs><style>.cls-1{fill:none;stroke:#000;stroke-linecap:round;stroke-linejoin:round;stroke-width:8px;}</style></defs><g id="Слой_2" data-name="Слой 2"><g id="Layer_1" data-name="Layer 1"><circle class="cls-1" cx="52.42546" cy="132.7534" r="25.29161"></circle><circle class="cls-1" cx="154.59718" cy="132.7534" r="25.29161"></circle><line class="cls-1" x1="129.30094" y1="132.74959" x2="113.66273" y2="132.74959"></line><path class="cls-1" d="M113.66273,23.39052h46.43748l32.10064,50.68865v38.62921a3.53148,3.53148,0,0,0,3.5354,3.51372,8.26375,8.26375,0,1,1,0,16.52749H179.88114"></path><path class="cls-1" d="M77.723,132.74959h35.93971V13.47836A9.47416,9.47416,0,0,0,104.18436,4h-90.706A9.47416,9.47416,0,0,0,4,13.47836V123.72671a9.01135,9.01135,0,0,0,9.00119,9.02288H27.14283"></path><polyline class="cls-1" points="192.211 74.08 145.714 74.08 145.714 51.267"></polyline></g></g></svg> 