<?xml version="1.0" encoding="UTF-8"?> <svg xmlns="http://www.w3.org/2000/svg" viewBox="0 0 208 182.28317"><defs><style>.cls-1{fill:none;stroke:#000;stroke-linecap:round;stroke-linejoin:round;stroke-width:8px;}</style></defs><g id="Слой_2" data-name="Слой 2"><g id="Layer_1" data-name="Layer 1"><path class="cls-1" d="M187.84032,137.32812v19.701a21.2559,21.2559,0,0,1-21.23281,21.25408H25.25408A21.27407,21.27407,0,0,1,4,157.02909V41.39756"></path><path class="cls-1" d="M187.84032,97.73469V54.26915H16.87159a12.87159,12.87159,0,0,1,0-25.74318H160.29931"></path><path class="cls-1" d="M160.39917,97.74375H204a0,0,0,0,1,0,0v39.588a0,0,0,0,1,0,0H160.39917a19.794,19.794,0,0,1-19.794-19.794v0A19.794,19.794,0,0,1,160.39917,97.74375Z"></path><polyline class="cls-1" points="62.576 28.526 112 4 134.163 28.526"></polyline></g></g></svg> 