<?xml version="1.0" encoding="UTF-8"?> <svg xmlns="http://www.w3.org/2000/svg" id="Layer_1" fill="currentColor" data-name="Layer 1" viewBox="0 0 3580 500"><path class="cls-1" d="M78.93,150.43c7.35,6.94,11.07,16.09,11.07,27.21v284.74c0,10.67-3.7,19.69-11.01,26.81-7.37,7.17-17.12,10.81-29,10.81s-21.03-3.62-28.59-10.76c-7.57-7.11-11.4-16.15-11.4-26.87V177.64c0-11.17,3.86-20.34,11.47-27.27,7.56-6.88,17.16-10.37,28.52-10.37s21.57,3.51,28.93,10.43h.01ZM50,0C22.39,0,0,22.39,0,50s22.39,50,50,50,50-22.39,50-50S77.61,0,50,0ZM404.1,159.28c-23.32-12.8-50.04-19.28-79.42-19.28s-53.95,6.38-76.63,18.98c-8.79,4.88-17.1,10.68-24.75,17.28-.76-9.15-4.12-16.8-10-22.78-6.76-6.85-15.69-10.32-26.56-10.32s-19.25,3.45-26.19,10.26c-7,6.86-10.54,15.93-10.54,26.98v282.36c0,10.6,3.53,19.56,10.48,26.6,6.95,7.06,15.78,10.64,26.25,10.64s19.86-3.6,26.61-10.7c6.71-7.03,10.12-15.96,10.12-26.54v-178.53c0-14.52,3.9-27.52,11.59-38.64,7.8-11.28,18.53-20.43,31.89-27.21,13.4-6.79,28.63-10.24,45.25-10.24,18.28,0,34.67,3.55,48.7,10.57,13.82,6.92,25,17.66,33.21,31.92,8.25,14.35,12.44,33.33,12.44,56.4v155.74c0,10.6,3.53,19.56,10.48,26.6,6.94,7.06,15.78,10.64,26.25,10.64s19.29-3.58,26.26-10.64c6.94-7.05,10.47-15.99,10.47-26.6v-155.74c0-35.72-6.82-66.34-20.27-91.02-13.5-24.78-32.22-43.86-55.63-56.72h-.01ZM677.83,427.8h-21.51c-12.04,0-21.95-4.93-30.31-15.06-8.5-10.29-12.8-23.33-12.8-38.76v-149.37h48.81c10.11,0,18.48-2.95,24.89-8.79,6.51-5.94,9.81-13.45,9.81-22.31,0-9.7-3.3-17.63-9.81-23.56-6.41-5.84-14.79-8.8-24.88-8.8h-48.81v-85.04c0-10.45-3.47-19.17-10.31-25.92-6.85-6.75-15.7-10.18-26.29-10.18s-19.46,3.42-26.29,10.18c-6.84,6.74-10.31,15.46-10.31,25.92v297.88c0,23.58,5.09,45.15,15.11,64.08,10.06,19,24.06,34.23,41.59,45.25,17.6,11.08,37.65,16.7,59.62,16.7h11.39c12.15,0,22.28-3.33,30.1-9.91,8.09-6.75,12.19-15.57,12.19-26.2s-3.08-18.98-9.16-25.73c-6.24-6.89-13.99-10.37-23.01-10.37h-.02ZM994.51,162.5c-24.45-14.93-54-22.5-87.84-22.5s-65.04,7.76-91.55,23.07c-26.52,15.32-47.58,36.76-62.58,63.71-14.96,26.9-22.55,58.38-22.55,93.54s8.04,66.09,23.88,93c15.85,26.96,38.1,48.38,66.13,63.67,27.96,15.26,60.33,23.01,96.21,23.01,19.96,0,41.14-3.7,62.96-10.98,21.85-7.29,40.43-16.91,55.17-28.52,8.55-6.47,12.62-14.44,12.12-23.73-.5-8.91-4.93-17.07-13.2-24.29-6.6-5.56-14.1-8.18-22.77-7.81-8.41.26-16.32,3.02-23.51,8.25-8.04,5.99-18.83,11.37-32.06,16.01-13.18,4.62-26.2,6.97-38.7,6.97-23.19,0-43.97-5.09-61.76-15.13-17.79-10.03-31.94-23.85-42.03-41.09-5.64-9.6-9.75-20.47-12.25-32.34h235.58c9.77,0,18-3.12,24.47-9.28,6.49-6.21,9.78-14.08,9.78-23.41,0-33.83-6.48-64.16-19.26-90.15-12.88-26.21-31.79-47.05-56.23-61.98v-.02ZM800.93,287c2.17-9.72,5.23-18.69,9.12-26.69,8.44-17.35,20.97-31.2,37.25-41.17,16.29-9.97,36.26-15.03,59.37-15.03,20.09,0,37.35,4.61,51.31,13.69,14.01,9.15,24.97,21.75,32.58,37.45,4.62,9.56,7.98,20.22,9.99,31.75h-199.62ZM1362.75,153.17c-13.13-8.74-33.02-13.17-59.07-13.17s-50.04,6.18-71.68,18.35c-10.58,5.96-20.36,13.26-29.15,21.75-.05-11.69-3.18-20.75-9.31-26.93-6.19-6.22-15.32-9.37-27.11-9.37s-20.4,3.26-26.8,9.69c-6.38,6.43-9.62,15.49-9.62,26.91v283c0,11.91,3.26,21.09,9.69,27.3,6.38,6.17,15.37,9.3,26.74,9.3s20.98-3.28,27.19-9.76c6.13-6.41,9.23-15.45,9.23-26.84v-184.87c0-17.99,5.78-33.02,17.17-44.66,11.61-11.88,27.83-20.15,48.19-24.58,20.61-4.47,44.26-4.04,70.24,1.25,6.11,1.41,11.87,1.63,17.12.69,5.47-1,10.4-3.42,14.66-7.19,4.37-3.87,7.31-9.32,8.75-16.08,3.5-13.62-1.96-25.32-16.22-34.8h-.02ZM1651.8,163.72c-26.93-15.74-57.71-23.72-91.48-23.72s-64.66,7.98-91.78,23.71-48.88,37.45-64.7,64.56c-15.82,27.12-23.85,58.09-23.85,92.05s7.36,64.72,21.86,91.59c14.53,26.93,34.67,48.56,59.87,64.3,25.23,15.78,54.13,23.79,85.88,23.79s60.64-8.01,85.88-23.79c11.38-7.11,22.03-15.86,31.75-26.07v10.86c0,10.57,3.59,19.49,10.66,26.5,7.09,7.04,16.08,10.61,26.72,10.61s19.63-3.57,26.72-10.61c7.08-7.03,10.66-15.95,10.66-26.5v-140.69c0-33.94-8.02-64.91-23.86-92.05-15.81-27.1-37.46-48.82-64.35-64.55h.02ZM1653.75,378.22c-9.26,17.01-22.13,30.61-38.24,40.42-16.06,9.77-34.63,14.72-55.19,14.72s-38.63-4.96-54.92-14.74c-16.35-9.83-29.44-23.43-38.88-40.44-9.49-17.02-14.31-36.49-14.31-57.87s4.82-41.46,14.32-58.5c9.45-17.01,22.54-30.61,38.87-40.44,16.3-9.78,34.77-14.74,54.92-14.74s39.11,4.95,55.19,14.72c16.13,9.83,29,23.42,38.24,40.42,9.3,17.08,14.02,36.77,14.02,58.54s-4.72,40.84-14.02,57.9h0ZM1937.83,427.8h-21.51c-12.04,0-21.96-4.93-30.32-15.06-8.5-10.3-12.8-23.34-12.8-38.76v-149.37h48.81c10.1,0,18.47-2.95,24.89-8.79,6.5-5.93,9.8-13.44,9.8-22.31,0-9.71-3.3-17.64-9.81-23.56-6.4-5.84-14.78-8.8-24.88-8.8h-48.81v-85.04c0-10.44-3.47-19.17-10.31-25.92-6.85-6.75-15.7-10.18-26.3-10.18s-19.46,3.42-26.29,10.18c-6.84,6.75-10.31,15.47-10.31,25.92v297.88c0,23.58,5.08,45.15,15.12,64.08,10.06,19,24.05,34.23,41.59,45.25,17.59,11.08,37.65,16.7,59.62,16.7h11.39c12.15,0,22.27-3.33,30.1-9.91,8.09-6.76,12.2-15.57,12.2-26.2s-3.09-18.98-9.17-25.73c-6.25-6.89-13.99-10.37-23-10.37h0ZM2150.78,437.24c-6.29-6.99-14.5-10.53-24.41-10.53h-15.91c-7.59,0-13.5-4.05-18.59-12.74-5.46-9.31-8.23-21.48-8.23-36.18V36.64c0-10.61-3.49-19.46-10.37-26.33-6.89-6.85-15.79-10.32-26.45-10.32s-19.57,3.47-26.46,10.33c-6.87,6.85-10.36,15.71-10.36,26.32v341.14c0,23.44,4.22,44.5,12.54,62.59,8.38,18.25,20.28,32.88,35.38,43.5,15.22,10.7,32.89,16.13,52.54,16.13h1.27c13.76,0,25.25-3.32,34.16-9.84,9.36-6.87,14.11-15.89,14.11-26.8s-3.1-19.26-9.21-26.11h-.01ZM2475.79,347.32c2.61,0,5.22-.2,7.62-.7,6.42-1.19,12.14-4.08,16.85-8.56,6.52-6.17,9.73-14.13,9.73-23.39,0-8.46-.4-16.72-1.2-24.68.1-.1,0-.3-.1-.4-2.41-23.89-8.43-45.68-17.96-65.09-12.84-26.18-31.8-47.08-56.18-62.01-24.48-14.93-53.97-22.49-87.88-22.49s-65.01,7.76-91.6,23.09c-26.49,15.33-47.55,36.73-62.5,63.7-13.44,24.09-20.87,51.86-22.27,82.71-.2,3.19-.3,6.47-.3,9.75v1.59c0,4.18.1,8.26.4,12.34.3,4.38.7,8.56,1.2,12.84v.4c.3,2.89.7,5.67,1.2,8.46,3.61,21.2,10.63,40.81,21.07,58.42,15.85,26.97,38.12,48.37,66.11,63.7,27.19,14.83,58.49,22.59,93.2,22.89,1,.1,2.01.1,3.01.1,19.96,0,41.13-3.68,63-10.95,21.87-7.37,40.43-16.92,55.18-28.57,4.01-3.09,7.02-6.47,9.03-10.15l.1-.1c2.31-4.08,3.31-8.56,3.01-13.44-.5-8.96-4.92-17.12-13.24-24.29-6.52-5.57-14.05-8.16-22.77-7.86-3.11.1-6.12.5-9.03,1.39-5.12,1.19-9.93,3.48-14.45,6.87-8.13,5.97-18.86,11.35-32.1,16.02-13.14,4.58-26.18,6.97-38.73,6.97-23.18,0-43.94-5.08-61.7-15.13-15.25-8.56-27.89-20.01-37.52-33.94-1.51-2.29-3.11-4.68-4.51-7.17-5.62-9.55-9.73-20.4-12.34-32.35h235.66v.03ZM2250.06,260.33c8.43-17.32,20.97-31.25,37.22-41.21.4-.2.8-.5,1.2-.7,16.05-9.45,35.62-14.33,58.19-14.33,20.06,0,37.42,4.68,51.27,13.74,14.05,9.16,25.08,21.7,32.61,37.42,4.71,9.56,8.03,20.2,10.03,31.75h-199.65c2.11-9.65,5.22-18.61,9.13-26.67ZM2697.83,427.8h-21.51c-12.03,0-21.95-4.93-30.32-15.06-8.5-10.3-12.8-23.34-12.8-38.76v-149.37h48.81c10.1,0,18.48-2.95,24.9-8.79,6.5-5.94,9.8-13.45,9.8-22.31,0-9.7-3.3-17.63-9.81-23.56-6.41-5.84-14.79-8.8-24.89-8.8h-48.81v-85.04c0-10.45-3.47-19.17-10.31-25.92-6.85-6.75-15.7-10.18-26.29-10.18s-19.46,3.42-26.3,10.18c-6.83,6.74-10.3,15.46-10.3,25.92v297.88c0,23.6,5.08,45.17,15.12,64.08,10.05,18.99,24.04,34.22,41.58,45.25,17.59,11.08,37.65,16.7,59.62,16.7h11.39c12.15,0,22.27-3.33,30.1-9.91,8.09-6.76,12.2-15.57,12.2-26.2s-3.08-18.99-9.16-25.73c-6.25-6.89-13.99-10.37-23.01-10.37h-.01ZM2848.93,150.43c7.35,6.94,11.07,16.09,11.07,27.21v284.74c0,10.67-3.7,19.69-11.01,26.81-7.37,7.17-17.12,10.81-29,10.81s-21.03-3.62-28.59-10.76c-7.57-7.11-11.4-16.15-11.4-26.87V177.64c0-11.17,3.86-20.34,11.47-27.27,7.56-6.88,17.16-10.37,28.52-10.37s21.57,3.51,28.93,10.43h.01ZM2820,0c-27.61,0-50,22.39-50,50s22.39,50,50,50,50-22.39,50-50S2847.61,0,2820,0ZM3081.4,294.75l113.25-100.76c7.3-6.78,11.25-14.73,11.76-23.63.48-8.99-2.74-17.23-9.49-24.41-6.4-7.36-14.31-11.35-23.53-11.85-9.3-.53-17.62,2.71-24.9,9.49l-146.21,130.07V36.01c0-10.61-3.37-19.36-10.04-25.99-6.67-6.64-15.46-10.01-26.11-10.01s-19.45,3.37-26.11,10.01c-6.66,6.64-10.04,15.38-10.04,25.99v427.99c0,10.61,3.37,19.36,10.04,25.99,6.66,6.64,15.45,10.02,26.11,10.02s19.44-3.36,26.11-10.02c6.66-6.63,10.04-15.38,10.04-25.99v-98.85l26.08-23.2,117.66,145.01c6.38,7.84,14.51,12.19,24.13,12.92,1,.09,1.97.12,2.94.12,8.4,0,16.22-2.86,23.23-8.52,8.25-6.78,12.81-14.85,13.54-24.02.74-9.08-2.08-17.62-8.38-25.37l-120.1-147.34h.02ZM3556.15,228.28h0c-15.81-27.11-37.46-48.83-64.35-64.56-26.93-15.74-57.71-23.72-91.48-23.72s-64.66,7.98-91.78,23.71-48.88,37.45-64.7,64.56c-15.82,27.12-23.85,58.09-23.85,92.05s7.36,64.72,21.86,91.59c14.54,26.94,34.68,48.57,59.87,64.3,25.23,15.78,54.13,23.79,85.88,23.79s60.64-8.01,85.88-23.79c11.38-7.11,22.03-15.86,31.75-26.07v10.86c0,10.57,3.59,19.49,10.66,26.5,7.08,7.04,16.07,10.61,26.71,10.61s19.63-3.57,26.73-10.61c7.08-7.03,10.66-15.95,10.66-26.5v-140.69c0-33.93-8.02-64.9-23.85-92.04h.01ZM3493.75,378.22c-9.26,17.02-22.13,30.62-38.25,40.42-16.05,9.77-34.62,14.72-55.18,14.72s-38.63-4.96-54.91-14.74c-16.35-9.83-29.44-23.43-38.88-40.44-9.5-17.04-14.32-36.51-14.32-57.87s4.82-41.44,14.33-58.5c9.45-17.01,22.54-30.61,38.87-40.44,16.3-9.78,34.77-14.74,54.91-14.74s39.11,4.95,55.18,14.72c16.14,9.83,29.01,23.42,38.25,40.42,9.3,17.08,14.02,36.77,14.02,58.54s-4.72,40.84-14.02,57.9h0Z"></path></svg> 