<?xml version="1.0" encoding="UTF-8"?> <svg xmlns="http://www.w3.org/2000/svg" width="1685" height="273" viewBox="0 0 1685 273" fill="none"><path fill-rule="evenodd" clip-rule="evenodd" d="M1668.24 0C1672.66 0 1676.73 1.79438 1679.64 4.70522C1682.55 7.61605 1684.38 11.6434 1684.38 16.1093C1684.38 20.5753 1682.59 24.6026 1679.68 27.5134C1676.77 30.4243 1672.74 32.2585 1668.28 32.2585C1663.81 32.2585 1659.78 30.4641 1656.87 27.5533C1653.96 24.6424 1652.17 20.6151 1652.17 16.1492C1652.17 11.6832 1653.96 7.65591 1656.87 4.74507C1659.78 1.83424 1663.81 0.0399134 1668.28 0.0399134L1668.24 0ZM1661.18 8.6129V23.7652H1664.41V19.4588H1669.27H1669.35L1672.34 23.7652H1676.29L1672.86 18.9005C1673.46 18.6613 1673.98 18.422 1674.42 18.0631C1674.85 17.7441 1675.21 17.3454 1675.53 16.9068C1675.81 16.4682 1676.05 16.0295 1676.17 15.5112C1676.33 14.9928 1676.37 14.4745 1676.37 13.9162C1676.37 13.0788 1676.21 12.3212 1675.93 11.6833C1675.65 11.0054 1675.21 10.4471 1674.62 10.0085C1674.02 9.53004 1673.3 9.211 1672.38 8.97175C1671.51 8.73251 1670.43 8.6129 1669.23 8.6129H1661.18ZM1669.31 16.7872C1669.91 16.7872 1670.47 16.7074 1670.91 16.5878C1671.39 16.4682 1671.74 16.2688 1672.06 16.0296C1672.38 15.7903 1672.62 15.4713 1672.74 15.1523C1672.9 14.7934 1672.98 14.3947 1672.98 13.9561C1672.98 13.1187 1672.66 12.4409 1672.06 12.0023C1671.47 11.5238 1670.55 11.2845 1669.31 11.2845H1664.41V16.7872H1669.31ZM1677.53 6.81856C1675.17 4.46597 1671.86 2.99058 1668.24 2.99058C1664.61 2.99058 1661.34 4.46597 1658.94 6.81856C1656.59 9.21103 1655.12 12.4807 1655.12 16.1093C1655.12 19.7379 1656.59 23.0076 1658.94 25.4001C1661.3 27.7925 1664.61 29.228 1668.24 29.228C1671.86 29.228 1675.13 27.7527 1677.53 25.4001C1679.88 23.0475 1681.35 19.7379 1681.35 16.1093C1681.35 12.4807 1679.88 9.21103 1677.53 6.81856Z" fill="#0D0D0D"></path><path fill-rule="evenodd" clip-rule="evenodd" d="M1456.92 97.4963L1559.49 0H1641.81C1546.21 90.7675 1450.67 181.583 1355.07 272.544H1272.75L1415.83 136.563L1272.17 0H1354.49L1457.06 97.4963H1456.87H1456.92ZM445.975 97.3996L446.072 97.4963H445.879L445.975 97.3996ZM419.133 150.166V272.544H473.835V149.149L474.029 148.907C526.26 99.239 578.539 49.6196 630.77 0H548.45L445.975 97.3996L343.5 0H261.181L404.84 136.563L419.182 150.166H419.133ZM653.59 0V272.544H708.292V83.8449L876.419 272.544H931.121V0H876.419V189.232L708.292 0H653.59ZM267.335 79.0524V79.2461C274.166 95.9957 277.655 114.585 277.655 135.449C277.655 155.152 274.36 173.402 267.528 190.345C260.697 207.095 250.377 221.618 236.423 233.865C222.42 246.161 204.735 255.795 183.368 262.717C162.001 269.398 136.758 272.787 107.881 272.787H5.11493L55.4076 224.958H124.112C140.489 224.958 154.879 222.925 167.185 218.617C179.54 214.357 189.861 208.402 197.952 200.56C206.431 192.766 212.487 183.278 216.751 172.289C220.966 161.106 223.001 148.665 223.001 135.256C223.001 121.846 220.966 109.792 216.751 99.1422C212.536 88.3469 206.237 79.246 197.952 71.791C189.861 64.1423 179.54 58.3817 167.185 54.3153C154.83 50.2005 140.489 48.1672 124.112 48.1672H55.0684V204.626L0.172852 256.715V0H107.541C136.467 0 161.662 3.14657 183.029 9.48819C204.396 15.6362 222.081 24.7372 236.083 36.4522C250.086 48.1673 260.6 62.3027 267.383 79.0524H267.335ZM1206.23 169.868H1027.1V204.481L972.207 256.569V0H1249.74V48.3609H1027.1V124.267H1206.23V169.868ZM1249.74 272.544V223.99H1028.22L977.198 272.544H1249.79H1249.74ZM1508.86 146.777L1467.77 186.037L1558.76 272.544H1641.08L1508.86 146.777Z" fill="#0D0D0D"></path></svg> 