<?xml version="1.0" encoding="UTF-8"?> <svg xmlns="http://www.w3.org/2000/svg" width="1685" height="274" viewBox="0 0 1685 274" fill="none"><path fill-rule="evenodd" clip-rule="evenodd" d="M1668.24 0.631836C1672.66 0.631836 1676.73 2.42622 1679.64 5.33705C1682.55 8.24789 1684.38 12.2752 1684.38 16.7412C1684.38 21.2071 1682.59 25.2344 1679.68 28.1453C1676.77 31.0561 1672.74 32.8903 1668.28 32.8903C1663.81 32.8903 1659.78 31.0959 1656.87 28.1851C1653.96 25.2743 1652.17 21.2469 1652.17 16.781C1652.17 12.3151 1653.96 8.28774 1656.87 5.37691C1659.78 2.46607 1663.81 0.671749 1668.28 0.671749L1668.24 0.631836ZM1661.18 9.24473V24.397H1664.41V20.0906H1669.27H1669.35L1672.34 24.397H1676.29L1672.86 19.5324C1673.46 19.2931 1673.98 19.0538 1674.42 18.695C1674.85 18.376 1675.21 17.9773 1675.53 17.5386C1675.81 17.1 1676.05 16.6614 1676.17 16.143C1676.33 15.6246 1676.37 15.1063 1676.37 14.548C1676.37 13.7107 1676.21 12.9531 1675.93 12.3151C1675.65 11.6372 1675.21 11.079 1674.62 10.6404C1674.02 10.1619 1673.3 9.84284 1672.38 9.60359C1671.51 9.36434 1670.43 9.24473 1669.23 9.24473H1661.18ZM1669.31 17.419C1669.91 17.419 1670.47 17.3393 1670.91 17.2196C1671.39 17.1 1671.74 16.9006 1672.06 16.6614C1672.38 16.4221 1672.62 16.1031 1672.74 15.7841C1672.9 15.4253 1672.98 15.0265 1672.98 14.5879C1672.98 13.7505 1672.66 13.0727 1672.06 12.6341C1671.47 12.1556 1670.55 11.9163 1669.31 11.9163H1664.41V17.419H1669.31ZM1677.53 7.4504C1675.17 5.0978 1671.86 3.62242 1668.24 3.62242C1664.61 3.62242 1661.34 5.0978 1658.94 7.4504C1656.59 9.84286 1655.12 13.1126 1655.12 16.7412C1655.12 20.3697 1656.59 23.6394 1658.94 26.0319C1661.3 28.4244 1664.61 29.8598 1668.24 29.8598C1671.86 29.8598 1675.13 28.3845 1677.53 26.0319C1679.88 23.6793 1681.35 20.3697 1681.35 16.7412C1681.35 13.1126 1679.88 9.84286 1677.53 7.4504Z" fill="#E4F860"></path><path fill-rule="evenodd" clip-rule="evenodd" d="M1456.92 98.1282L1559.49 0.631836H1641.81C1546.21 91.3993 1450.67 182.215 1355.07 273.176H1272.75L1415.83 137.195L1272.17 0.631836H1354.49L1457.06 98.1282H1456.87H1456.92ZM445.975 98.0314L446.072 98.1282H445.879L445.975 98.0314ZM419.133 150.798V273.176H473.835V149.781L474.029 149.539C526.26 99.8709 578.539 50.2514 630.77 0.631836H548.45L445.975 98.0314L343.5 0.631836H261.181L404.84 137.195L419.182 150.798H419.133ZM653.59 0.631836V273.176H708.292V84.4767L876.419 273.176H931.121V0.631836H876.419V189.864L708.292 0.631836H653.59ZM267.335 79.6842V79.8779C274.166 96.6275 277.655 115.217 277.655 136.081C277.655 155.784 274.36 174.034 267.528 190.977C260.697 207.727 250.377 222.25 236.423 234.497C222.42 246.793 204.735 256.427 183.368 263.349C162.001 270.03 136.758 273.418 107.881 273.418H5.11493L55.4076 225.59H124.112C140.489 225.59 154.879 223.557 167.185 219.248C179.54 214.988 189.861 209.034 197.952 201.192C206.431 193.398 212.487 183.91 216.751 172.921C220.966 161.738 223.001 149.297 223.001 135.888C223.001 122.478 220.966 110.424 216.751 99.7741C212.536 88.9788 206.237 79.8778 197.952 72.4228C189.861 64.7741 179.54 59.0135 167.185 54.9471C154.83 50.8323 140.489 48.799 124.112 48.799H55.0684V205.258L0.172852 257.347V0.631836H107.541C136.467 0.631836 161.662 3.7784 183.029 10.12C204.396 16.268 222.081 25.369 236.083 37.0841C250.086 48.7991 260.6 62.9346 267.383 79.6842H267.335ZM1206.23 170.5H1027.1V205.113L972.207 257.201V0.631836H1249.74V48.9927H1027.1V124.899H1206.23V170.5ZM1249.74 273.176V224.622H1028.22L977.198 273.176H1249.79H1249.74ZM1508.86 147.409L1467.77 186.669L1558.76 273.176H1641.08L1508.86 147.409Z" fill="#E4F860"></path></svg> 