<?xml version="1.0" encoding="UTF-8"?> <svg xmlns="http://www.w3.org/2000/svg" width="1685" height="274" viewBox="0 0 1685 274" fill="none"><path fill-rule="evenodd" clip-rule="evenodd" d="M1668.24 0.554199C1672.66 0.554199 1676.73 2.34858 1679.64 5.25942C1682.55 8.17025 1684.38 12.1976 1684.38 16.6635C1684.38 21.1295 1682.59 25.1568 1679.68 28.0676C1676.77 30.9785 1672.74 32.8127 1668.28 32.8127C1663.81 32.8127 1659.78 31.0183 1656.87 28.1075C1653.96 25.1966 1652.17 21.1693 1652.17 16.7034C1652.17 12.2374 1653.96 8.21011 1656.87 5.29927C1659.78 2.38843 1663.81 0.594113 1668.28 0.594113L1668.24 0.554199ZM1661.18 9.1671V24.3194H1664.41V20.013H1669.27H1669.35L1672.34 24.3194H1676.29L1672.86 19.4547C1673.46 19.2155 1673.98 18.9762 1674.42 18.6173C1674.85 18.2983 1675.21 17.8996 1675.53 17.461C1675.81 17.0224 1676.05 16.5837 1676.17 16.0654C1676.33 15.547 1676.37 15.0287 1676.37 14.4704C1676.37 13.633 1676.21 12.8754 1675.93 12.2374C1675.65 11.5596 1675.21 11.0013 1674.62 10.5627C1674.02 10.0842 1673.3 9.7652 1672.38 9.52595C1671.51 9.28671 1670.43 9.1671 1669.23 9.1671H1661.18ZM1669.31 17.3414C1669.91 17.3414 1670.47 17.2616 1670.91 17.142C1671.39 17.0224 1671.74 16.823 1672.06 16.5838C1672.38 16.3445 1672.62 16.0255 1672.74 15.7065C1672.9 15.3476 1672.98 14.9489 1672.98 14.5103C1672.98 13.6729 1672.66 12.9951 1672.06 12.5565C1671.47 12.078 1670.55 11.8387 1669.31 11.8387H1664.41V17.3414H1669.31ZM1677.53 7.37276C1675.17 5.02017 1671.86 3.54478 1668.24 3.54478C1664.61 3.54478 1661.34 5.02017 1658.94 7.37276C1656.59 9.76523 1655.12 13.0349 1655.12 16.6635C1655.12 20.2921 1656.59 23.5618 1658.94 25.9543C1661.3 28.3467 1664.61 29.7822 1668.24 29.7822C1671.86 29.7822 1675.13 28.3069 1677.53 25.9543C1679.88 23.6017 1681.35 20.2921 1681.35 16.6635C1681.35 13.0349 1679.88 9.76523 1677.53 7.37276Z" fill="white"></path><path fill-rule="evenodd" clip-rule="evenodd" d="M1456.92 98.0505L1559.49 0.554199H1641.81C1546.21 91.3217 1450.67 182.138 1355.07 273.099H1272.75L1415.83 137.117L1272.17 0.554199H1354.49L1457.06 98.0505H1456.87H1456.92ZM445.975 97.9538L446.072 98.0505H445.879L445.975 97.9538ZM419.133 150.72V273.099H473.835V149.703L474.029 149.461C526.26 99.7932 578.539 50.1738 630.77 0.554199H548.45L445.975 97.9538L343.5 0.554199H261.181L404.84 137.117L419.182 150.72H419.133ZM653.59 0.554199V273.099H708.292V84.3991L876.419 273.099H931.121V0.554199H876.419V189.786L708.292 0.554199H653.59ZM267.335 79.6066V79.8003C274.166 96.5499 277.655 115.139 277.655 136.003C277.655 155.706 274.36 173.956 267.528 190.9C260.697 207.649 250.377 222.172 236.423 234.42C222.42 246.716 204.735 256.349 183.368 263.272C162.001 269.952 136.758 273.341 107.881 273.341H5.11493L55.4076 225.512H124.112C140.489 225.512 154.879 223.479 167.185 219.171C179.54 214.911 189.861 208.956 197.952 201.114C206.431 193.32 212.487 183.832 216.751 172.843C220.966 161.66 223.001 149.219 223.001 135.81C223.001 122.401 220.966 110.346 216.751 99.6964C212.536 88.9011 206.237 79.8002 197.952 72.3452C189.861 64.6965 179.54 58.9359 167.185 54.8695C154.83 50.7547 140.489 48.7214 124.112 48.7214H55.0684V205.18L0.172852 257.269V0.554199H107.541C136.467 0.554199 161.662 3.70076 183.029 10.0424C204.396 16.1904 222.081 25.2914 236.083 37.0064C250.086 48.7215 260.6 62.8569 267.383 79.6066H267.335ZM1206.23 170.423H1027.1V205.035L972.207 257.124V0.554199H1249.74V48.9151H1027.1V124.821H1206.23V170.423ZM1249.74 273.099V224.544H1028.22L977.198 273.099H1249.79H1249.74ZM1508.86 147.331L1467.77 186.591L1558.76 273.099H1641.08L1508.86 147.331Z" fill="white"></path></svg> 