<?xml version="1.0" encoding="UTF-8" standalone="no"?> <svg xmlns="http://www.w3.org/2000/svg" xmlns:svg="http://www.w3.org/2000/svg" width="3.7240701mm" height="3.7242882mm" viewBox="0 0 3.7240701 3.7242882" version="1.1" id="svg1" xml:space="preserve"><defs id="defs1"></defs><g id="layer1" transform="translate(-103.44213,-184.40452)"><g style="fill:#000000" id="g2" transform="matrix(0.26458333,0,0,0.26458333,103.32307,180.5813)"><path d="m 14.298,27.202 -3.87,-3.87 C 11.129,22.403 11.55,21.251 11.55,20 11.55,16.94 9.061,14.45 6,14.45 c -3.06,0 -5.55,2.49 -5.55,5.55 0,3.061 2.49,5.55 5.55,5.55 1.251,0 2.403,-0.421 3.332,-1.122 l 3.87,3.87 c 0.151,0.151 0.35,0.228 0.548,0.228 0.198,0 0.396,-0.076 0.548,-0.228 0.303,-0.303 0.303,-0.793 0,-1.096 z M 1.55,20 c 0,-2.454 1.997,-4.45 4.45,-4.45 2.454,0 4.45,1.997 4.45,4.45 0,2.453 -1.996,4.45 -4.45,4.45 -2.454,0 -4.45,-1.996 -4.45,-4.45 z" id="path1-4"></path></g></g></svg> 