<?xml version="1.0" encoding="UTF-8"?> <svg xmlns="http://www.w3.org/2000/svg" id="Слой_1" data-name="Слой 1" viewBox="0 0 512 512"><defs><style>.cls-1{fill:#37aee2;}.cls-2{fill:#c8daea;}.cls-3{fill:#a9c9dd;}.cls-4{fill:#f6fbfe;}</style></defs><path class="cls-1" d="M76.8,0H435.2A76.8,76.8,0,0,1,512,76.8V435.2A76.8,76.8,0,0,1,435.2,512H76.8A76.8,76.8,0,0,1,0,435.2V76.8A76.8,76.8,0,0,1,76.8,0Z"></path><path class="cls-2" d="M199,404c-11,0-10-4-13-14L154,285,399,141"></path><path class="cls-3" d="M199,404c7,0,11-4,16-8l45-43-56-34"></path><path class="cls-4" d="M204,319l135,99c14,9,26,4,30-14l55-258c5-22-9-32-24-25L79,245c-21,8-21,21-4,26l83,26L348,176c9-5,17-3,11,4"></path></svg> 