<?xml version="1.0" encoding="UTF-8"?> <svg xmlns="http://www.w3.org/2000/svg" viewBox="0 0 120 80"><defs><style>.a{fill:#1b1918;}.a,.b{fill-rule:evenodd;}.b{fill:#ed1c24;}</style></defs><title>xline_s</title><path class="a" d="M101.47,36.45,101,38.21h3.64l-.78,3.16h-3.63l-.7,2.87h4.88L105,41.8h3.35L107,47.36H92.2l.7-2.87h2.22l2-8Zm-1.91,7.82-.05.22h0Zm9.52-6H105.9l.57-2.33H95l.76-3.11h14.67ZM56.59,36.45l-2,8h0l.06-.24h4.14l.76-3.2h3.65L61.7,47.36H47.32l.7-2.87h2.22l2-8Zm-5.67-3.64h8.56L58.71,36H50.14ZM71.75,47.36H62.59l.7-2.87H65.8l2-8H72l-2,8h2.38ZM66.2,32.81h8.7L74.12,36h-8.7ZM80.88,47.36H72.52l.7-2.87h2.51l2-8h7.47l1.72,5.32,1.33-5.32h3.52l-2,8h1.91L91,47.36h-7.3l-2.79-8.84-1.49,6h2.19ZM80,36H75.34l.78-3.16h8l1,3.16Zm7-3.16h7.63L93.81,36H86.18Zm0,0"></path><path class="b" d="M42,39.09c0-.08.37.71.51.92.26.39.28,1.15.57,1.41a12.05,12.05,0,0,1,1.31,3.18c.15.57,1.24,2.68,2,4.5a5.7,5.7,0,0,1,1-.11c.38,0,.82.6,1.53.6,1.23,0,2.67-1,3.89-1.17,3.67-.69,7.13-2.07,11-2.07.51,0-.41.26-.24.64.25.55,9.6-.33,9.19-.7,2.4-.3,5.1.33,7.48,0,1-.16,6-.08,7,.33,1.08.15,1.6-.41,2.59-.07.54.19.75-.14.46-.51a13.38,13.38,0,0,1,2.36,0c.77,0,5.3.33,5.43.76,1.37.28,3.74,0,5.22.64.81.36,3.06.14,3.55,1,.68.21,1.37.39,2,.58s1.2.34,1.79.55,1,.41,1.47.6c.79.28,1.64.22,2.45.55.34.14-.3.75-.45.94-.66.87-6-1.58-7.53-1.58-.63.16.81.38.66.6-1.59,2.39-7.27-.76-10.22-.62a26.2,26.2,0,0,1-6.85-.6c-.59-.15-4.8.43-4.92.24-3.06.42-6.18,0-9.44,0-3,0-5.75.64-8.62.63-.67.77-5.29.46-6.65.46s-2.65.36-3.83.39a24.43,24.43,0,0,0-2.93.28,18.25,18.25,0,0,1-3.43.93,16.47,16.47,0,0,0-2.81.29c.64,1.57.64,4.28,1.15,5.75.42,1.21,2,4.43,2,5.49,0,0-.72.65-.72.13a6,6,0,0,0-.65-2.09c.27.1.23.07.1.07s0,0-.1,0H49c-.09,0,.15,0-.29-.2a7.42,7.42,0,0,1-.29-1c-.12-.4-.41-.75-.52-1.17A17.8,17.8,0,0,0,46.82,57a33.19,33.19,0,0,1-1.31-4l-.24.06a40.63,40.63,0,0,1-4.63.79c-1.33,0-2.77.12-3.33,1-.24.38-4.35.25-4.83.38-.44-.46-4.06.92-5.26.92a11.07,11.07,0,0,0-2.22.25,25.58,25.58,0,0,0-2.11,1.92c-.42-.09-1.87,1.65-2.29,2-.69.6-1.36.71-.15,1,.16,0-.22.24-.29.37-.26.43-1.36-.31-1.93.94a12.84,12.84,0,0,0-2.83,2,29,29,0,0,0-1.9,2.78c-.31.43-2,2.46-1.38.72,0,0,1.14-1.69,1.42-2,.58-.7.84-1.49,1.43-2.16.45-.52.64-.55.53-1.07.43.37,2.16-2.13,2.47-2.66.55-.93,1.14-1.82,1.64-2.78a12.61,12.61,0,0,0-1.42.25,7.76,7.76,0,0,1-1.9.65A15,15,0,0,0,12,59.74c-2,1.2-4.38,1-6.53,1.67-1.33.42.56-.43.93-.56,2.64-.91,5.45-1.42,7.81-2.79.22.17.28-.1.52-.17a4.18,4.18,0,0,1,.83,0,10.88,10.88,0,0,0,1.53-.28c.36-.1,2.26-1,.93-1-.29,0-1.06.25-1.25.14s0-.34,0-.37a3.65,3.65,0,0,1,.69-.18,4.06,4.06,0,0,0,2.21-.74,13.51,13.51,0,0,1,1.6-.21l.14-.2C22,55,23,52.47,23.86,51.9a12.46,12.46,0,0,0,3.07-3.22c.91-1.14,5.79-6.31,5.7-7.31-.06,0-.32-.71-.44-.88-.3-.42-.17-.82-.44-1.24a9.44,9.44,0,0,1-.8-1.5c-.37-.64-2.38-4.47-2.77-4.49s-1.81.56-1.72.38A1.13,1.13,0,0,1,27,33c-.16,0,.47-.23.63-.28s-.12-.43-.5-.28c-.95.37-1.9.71-2.91,1a13.47,13.47,0,0,1-2.76.9c-.39,0,.43-.47.45-.48-.22,0,1.49-.69,1.72-.76A10.23,10.23,0,0,0,25,32.51a22.61,22.61,0,0,0,3.11-1.74c1,0,1.15-1.28,1.82-1.28a10.26,10.26,0,0,0,3.83-.64c2-.66,4.68-2,6.65-1.79-.28,2.31-2.41,2.33-4.16,3.21a17,17,0,0,1-2.28.9c-.86.28.79.16.76.17s.08.61.21.94a18.56,18.56,0,0,0,1.12,2.87,12.28,12.28,0,0,0,1,1.58,2.39,2.39,0,0,0,1-1c.36-.46.37-.8-.19-.44s.19-.58.33-.75a6.43,6.43,0,0,1,1.38-1.36c.26-.18,1.41-.92,1.28-1.23l6-6.56c1.85-1,2.35-2.1,3.51-3.78.32-.46,3.73-2.2,3.5-3,.54-.5,4.29-3.85,4.65-3.76a1.14,1.14,0,0,0,.88-.24c.48-.38-.21.54-.33.69s-1.1,1.36-.83,1.55.88-.37.86-.11-.76,1-.94,1.28-.44.62-.64.92c0,0-.65.59-.51.6-.82.15-1.57,2.43-2.48,2.79-1.38.53-2.28,2.22-3.11,3.35-1.56,2.11-3.67,3.09-5,5.27a13.65,13.65,0,0,1-2.24,3c-.34.32-1.59,1.84-1.67,1.77-.1.42-1.69,1.35-1.44,1.79s.42-.28.55-.39a1.24,1.24,0,0,1,.59-.16l4.05-4.4,3.91-4c.33-.34.73-.49,1-1,.42-.65.93-1.19,1.36-1.82a8.15,8.15,0,0,1,1.62-1.5c.86-.63,1.27-1.43,2.19-2,.36-.21.48-.78.81-1,.16-.13.87-.27.71-.51.88-.44,1.63-1.8,2.15-2.61.36-.55.92-.77,1.3-1.25,1.37-.91,2-2.46,3.44-3.2.89-.44,2-3.11,3.24-2.63.19.07.52.4.48.6-.31,1.41-5.89,5.32-6.24,5.68l-3.79,3.75-7.3,7.64-5.54,5.88c-.22.79-1.44,1.61-2,2.3-.19.25-.43.52-.61.79s-.29,0-.43.16-.31.48-.33.47c-.23,0-.14,0-.33.26s0,.26,0,.53Zm2.13,10.31c-.24-.71-.59-1.75-.79-2.12l-1.45-2.72c-.51-1-1.17-4.4-2.24-3.24,0-.08.5,1.32.62,1.58.36.76.56,1.67.87,2.47a38.41,38.41,0,0,0,1.68,4.48,6.33,6.33,0,0,1,1.32-.44Zm-7.31,1.75C36.37,49,35.06,45.61,34.21,45c-.07.2-.64.5-.85.64a5.41,5.41,0,0,0-1.24,1.47c-.8,1.1-2,1.57-2.73,2.58-.41.58-.86,1.18-1.27,1.68-.15.41-.12.44.2.15a5.38,5.38,0,0,0,.55-.43,5.1,5.1,0,0,1,1-1.08c.44-.27,1.8-1.51,2.17-1.49.16,0-.22.39-.41.53a6.31,6.31,0,0,0-1,1.12,6,6,0,0,1-.92,1.23,7.5,7.5,0,0,1-1.07.89c0,.32-.19.65-.52,1l.68-.24c-.49.47,1.67-.22,2.1-.5.73-.49,1.51-.27,2.36-.32.5,0,.25-.71.83-.83a9.89,9.89,0,0,1,2.22-.18l.59,0ZM39,40.38l.28-.2,0,.21s.16-.23.16-.24c.09-.23.22-.17.08-.47s-.22-.86-.42-1-.26.24-.26.34c0,.33.05.61.05.92,0,.08,0,.29,0,.32s.25,0,.33-.11Zm0,0"></path><path class="a" d="M57.31,52.54c.18.27,1.87-.48,2.21-.48,1,0,2-.21,3-.25l6-.29A6,6,0,0,0,71,51a9.09,9.09,0,0,1,2.63-.25,17.37,17.37,0,0,0,3.88-.11,25.5,25.5,0,0,1,4.6-.09,18.72,18.72,0,0,0,3.48.06c4.88-.23,9.74.75,14.57.75-.89,1.37,1.35.54,2.47,1,1.4.63,2-.14.67,1.63-2.15,2.86-5.37-.23-8.39-.23-.51.67-.72.45,0,.7,1.22.45.08.34-.59.34-2.86,0-5.55-.53-8.39-.53a34.58,34.58,0,0,0-5-.18c-.9,0-3.41.2-4-.15a48,48,0,0,1-6.7.26c-1.53,0-3.82.58-5.24.2-1.21-.1.08,0-.65.17-1,.24-1.71-.08-2.72.28a1.87,1.87,0,0,1-1.41.08c-.4-.06-.69.2-1,.2s-2.36.37-2.23-.28a12.07,12.07,0,0,0-2.94.08c-1.57.37-2.75-.05-4,.82,0,0-2.53.5-2.45.28-.72.59,0,.15-.75.34a9.81,9.81,0,0,1-2.49.23c-.49,0-.88.24-1.33.25s-1,.2-1-.07c-.45.52-5.31,1.41-6.33,1.46a13,13,0,0,0-3.71.85c-.48.17-2.33.46-2.3.5-.19.13-1.68.15-1.3,0a21.16,21.16,0,0,1,2.38-.76c.44-.14.89-.05,1.36-.23a4.55,4.55,0,0,1,1.32-.31c1.68-.29,8.93-3.22,10-2.8.23.09-.25.6.25.42a28.52,28.52,0,0,1,3.88-1.3c.55,0,3,.59,3.61-.55,1.24-.35,2.87-1.4,4.2-1.4.24,0,0,.17.2.25.6.25,1.73.29,1.9-.37Zm36.63,1.34a1.07,1.07,0,0,0,.16-.21c.12-.18,0-.12-.16-.12h-1c-.17,0-.08,0-.15.11s.31,0,.34,0a3.53,3.53,0,0,0,.42,0c.15,0,.13.07.26.11l.17.05ZM27.39,59.74a6.69,6.69,0,0,0-1.69.39c-.16,0-1.49.46-.68.23a4.38,4.38,0,0,1,1-.07,4.07,4.07,0,0,0,1.39-.55Zm0,0"></path></svg> 