<?xml version="1.0" encoding="UTF-8"?> <svg xmlns="http://www.w3.org/2000/svg" width="659" height="275" viewBox="0 0 659 275" fill="none"><path fill-rule="evenodd" clip-rule="evenodd" d="M308.15 63.3222L275.971 93.5882C279.748 106.685 281.661 120.911 281.661 136.314C281.661 156.131 278.227 174.526 271.311 191.45C264.443 208.226 253.897 222.844 239.721 235.206C225.544 247.42 207.639 257.083 186.007 264.049C164.374 270.916 138.817 274.399 109.434 274.399L0.43759 274.252L108.993 172.123L207.541 79.4117C205.481 77.0081 203.225 74.7516 200.821 72.5933C192.531 64.99 182.083 59.1526 169.574 55.0812C157.065 51.0097 142.496 48.9495 125.867 48.9495H55.868V201.604L0.192383 253.944V0.680862H109.042C138.425 0.680862 163.933 3.86938 185.614 10.1482C207.247 16.4271 225.152 25.502 239.328 37.2748C241.683 39.1879 243.939 41.15 246.048 43.2102L291.276 0.680862H325.074L374.519 47.1836L429.018 98.4935L533.011 0.631836H616.5L325.711 274.203H242.222L304.177 215.928L387.322 137.687L308.15 63.224V63.3222ZM440.153 187.427L532.472 274.252H615.961L481.799 148.038L440.202 187.427H440.153ZM226.084 140.532L135.187 226.033C147.99 225.395 159.469 223.335 169.574 219.999C182.083 215.682 192.531 209.6 200.821 201.8C209.258 194.001 215.586 184.533 219.805 173.447C223.582 163.489 225.642 152.6 226.035 140.581L226.084 140.532Z" fill="#E4F860"></path><path fill-rule="evenodd" clip-rule="evenodd" d="M642.226 0.809082C646.652 0.809082 650.719 2.60346 653.63 5.5143C656.541 8.42514 658.375 12.4525 658.375 16.9184C658.375 21.3843 656.58 25.4117 653.67 28.3225C650.759 31.2333 646.732 33.0676 642.266 33.0676C637.8 33.0676 633.772 31.2732 630.861 28.3624C627.951 25.4515 626.156 21.4242 626.156 16.9583C626.156 12.4923 627.951 8.46499 630.861 5.55415C633.772 2.64332 637.8 0.848995 642.266 0.848995L642.226 0.809082ZM635.168 9.42198V24.5743H638.398V20.2678H643.262H643.342L646.333 24.5743H650.28L646.851 19.7096C647.449 19.4704 647.968 19.2311 648.406 18.8722C648.845 18.5532 649.204 18.1545 649.523 17.7159C649.802 17.2773 650.041 16.8386 650.161 16.3202C650.32 15.8019 650.36 15.2835 650.36 14.7253C650.36 13.8879 650.201 13.1303 649.921 12.4923C649.642 11.8145 649.204 11.2562 648.606 10.8176C648.007 10.3391 647.29 10.0201 646.373 9.78084C645.495 9.54159 644.419 9.42198 643.223 9.42198H635.168ZM643.302 17.5963C643.9 17.5963 644.459 17.5165 644.897 17.3969C645.376 17.2773 645.735 17.0779 646.054 16.8386C646.373 16.5994 646.612 16.2804 646.731 15.9614C646.891 15.6025 646.971 15.2038 646.971 14.7651C646.971 13.9278 646.652 13.25 646.054 12.8113C645.455 12.3328 644.538 12.0936 643.302 12.0936H638.398V17.5963H643.302ZM651.516 7.62764C649.164 5.27505 645.854 3.79967 642.226 3.79967C638.597 3.79967 635.327 5.27505 632.935 7.62764C630.582 10.0201 629.107 13.2898 629.107 16.9184C629.107 20.547 630.582 23.8167 632.935 26.2092C635.288 28.6016 638.597 30.0371 642.226 30.0371C645.854 30.0371 649.124 28.5618 651.516 26.2092C653.869 23.8566 655.344 20.547 655.344 16.9184C655.344 13.2898 653.869 10.0201 651.516 7.62764Z" fill="#E4F860"></path></svg> 